<?xml version="1.0" encoding="utf-8"?>
<!-- Generator: Adobe Illustrator 25.3.1, SVG Export Plug-In . SVG Version: 6.00 Build 0)  -->
<svg version="1.1" id="Layer_1" xmlns="http://www.w3.org/2000/svg" xmlns:xlink="http://www.w3.org/1999/xlink" x="0px" y="0px"
	 viewBox="0 0 1920 1920" style="enable-background:new 0 0 1920 1920;" xml:space="preserve">
<style type="text/css">
	.st0{fill:#FFE317;}
</style>
<g>
	<path class="st0" d="M1075.41,79.51c29.83,13.75,40.95,37.35,38.15,69.43c-1.39,15.89-0.24,32-0.24,49.38
		c97.5,20.77,187.73,57.47,273.55,113.96c13.48-14.08,26.97-28.7,41.03-42.77c27.93-27.96,56.08-28.04,83.82-0.39
		c45.55,45.4,91.03,90.86,136.42,136.42c26.29,26.39,26.54,55.24,0.55,81.4c-14.14,14.23-28.91,27.83-44.29,42.58
		c55.03,84.31,92.71,174.15,113.47,273.65c19.66,0,39.51-0.04,59.37,0.01c39.35,0.1,59.69,20.13,59.74,59.03
		c0.07,65.46,0.2,130.92-0.06,196.37c-0.13,32.55-21.49,54.55-53.67,54.61c-125.75,0.26-251.5,0.11-377.25,0.07
		c-2.24,0-4.47-0.48-5.79-0.63c59.49-228.11,3.73-418.22-197.22-547.58c-162.72-104.75-337.38-102.55-498.03,5.43
		c-194.43,130.68-247.54,318.54-188.22,542.83c-4.54,0-9.63,0-14.72,0c-120.58,0-241.16,0.03-361.74-0.01
		c-41.19-0.01-60.74-19.84-60.77-61.5c-0.03-63.16-0.07-126.32,0.01-189.48c0.05-38.94,20.4-59.04,59.66-59.14
		c19.42-0.05,38.85-0.01,59.33-0.01c20.79-97.92,57.6-188.1,114.7-274.89c-15-13.62-30.71-26.9-45.27-41.33
		c-26.2-25.98-25.86-55.01,0.39-81.36c45.38-45.57,90.83-91.06,136.43-136.41c27.88-27.73,55.76-27.53,83.89,0.31
		c13.82,13.67,27.42,27.56,41.79,42.02c83.9-54.71,173.76-92.38,272.74-112.91c0-16.71,1.16-33.3-0.25-49.67
		c-2.77-32.08,8.38-55.66,38.15-69.43C919.19,79.51,997.3,79.51,1075.41,79.51z"/>
	<path class="st0" d="M957.1,1113.33c-103.36,0-206.72-0.23-310.07,0.31c-12.33,0.06-17.89-3.94-22.57-15.11
		c-103.43-246.7,89.29-518.08,356.49-501.6c247.71,15.28,407.67,273.91,310.92,502.14c-4.91,11.58-11.18,14.55-22.97,14.5
		C1164.97,1113.15,1061.04,1113.33,957.1,1113.33z"/>
	<path class="st0" d="M1147.78,1217.58c35.62,0,68.69,0,103.38,0c0,7,0,13.16,0,19.32c0,70.61-0.28,141.21,0.37,211.81
		c0.08,8.3,3.32,18.1,8.44,24.55c24.61,31.01,50.56,60.95,75.6,91.62c6.05,7.41,11.1,9.83,21.5,7.5
		c78.12-17.46,152.04,30.46,166.9,107.16c14.99,77.36-34.74,149.2-114.02,162.26c-50.38,8.3-93.47-8.49-126.05-47.35
		c-33.97-40.52-42.03-87.24-23.13-137c4.41-11.62,2.64-18.56-4.83-27.31c-30.55-35.79-60.22-72.34-90.75-108.15
		c-12.18-14.29-17.73-29.87-17.62-48.73c0.48-79.79,0.2-159.58,0.2-239.37C1147.78,1228.83,1147.78,1223.76,1147.78,1217.58z"/>
	<path class="st0" d="M665.33,1217.45c35.36,0,68.43,0,102.64,0c0.27,5.66,0.71,10.65,0.71,15.64
		c0.04,80.36-0.22,160.73,0.22,241.09c0.1,18.25-5.36,33.35-17.09,47.17c-30.83,36.31-60.92,73.25-91.84,109.48
		c-7.15,8.37-8.67,15.08-4.43,25.84c20.85,52.89,7.09,111.5-33.95,149.91c-41.16,38.52-100.93,48.07-151.98,24.28
		c-51.15-23.84-82.18-75.11-79.75-131.77c3.53-82.17,81.48-144.41,161.99-127.9c15.75,3.23,24.69,0.27,34.33-12.1
		c22.21-28.51,46.49-55.4,68.73-83.88c5.75-7.36,9.88-18.15,9.99-27.41c0.82-70.02,0.45-140.05,0.45-210.08
		C665.33,1231.47,665.33,1225.23,665.33,1217.45z"/>
	<path class="st0" d="M906.56,1217.43c35.01,0,68.09,0,103.38,0c0,6.49,0,12.58,0,18.66c0,109.11,0.16,218.23-0.26,327.34
		c-0.04,10.59,3,16.01,12.5,21.07c61.52,32.76,88.83,102.76,66.08,167.24c-22.72,64.38-88.95,102.23-156.25,89.29
		c-66.99-12.88-114.73-72.55-111.2-141.35c2.61-50.8,27.09-89.58,71.74-114.05c11.53-6.32,14.34-13.06,14.29-25.25
		c-0.47-107.39-0.27-214.78-0.27-322.17C906.56,1231.93,906.56,1225.64,906.56,1217.43z"/>
	<path class="st0" d="M1630.23,1217.4c35.23,0,68.31,0,103.38,0c0,34.33,0.53,68.02-0.28,101.69c-0.29,12.19,2.61,19.02,14.27,25.24
		c60.2,32.1,86.86,102.72,64.19,166.48c-21.98,61.83-87,101.05-149.67,90.3c-69.95-12-119.25-68.69-117.78-137.79
		c1.14-53.72,26.33-94.2,73.59-119.95c9.38-5.11,12.8-10.4,12.57-21.06C1629.76,1287.93,1630.23,1253.53,1630.23,1217.4z"/>
	<path class="st0" d="M286.27,1217.81c0,35.6,0.45,69.48-0.26,103.33c-0.23,11.05,2.78,17.02,13.05,22.49
		c61.35,32.67,88.35,103.05,65.26,167.48c-23.04,64.31-89.18,101.72-156.62,88.6c-66.72-12.99-114.41-73.13-110.55-141.88
		c2.85-50.76,27.49-89.43,72.27-113.71c11-5.97,13.89-12.43,13.68-23.87c-0.62-33.78-0.22-67.57-0.22-102.44
		C217.53,1217.81,251.01,1217.81,286.27,1217.81z"/>
</g>
</svg>
